<svg width="16" height="17" viewBox="0 0 16 17" fill="none" xmlns="http://www.w3.org/2000/svg">
<path d="M4.52603 1.50064C3.36343 1.4899 2.35674 2.1892 1.91145 3.18879L1.08918 3.39452C0.840849 3.45652 0.666656 3.67954 0.666656 3.93554C0.666656 4.08354 0.725401 4.22573 0.830068 4.33007L1.76561 5.26561C1.81466 5.47594 1.87983 5.6729 1.97265 5.85155C2.14169 6.17692 2.40465 6.41678 2.69791 6.61132C2.78455 9.90138 4.24317 11.883 5.9134 12.8066C5.95709 12.8308 6.00105 12.8515 6.04491 12.8743C6.04742 12.8796 6.05003 12.8848 6.05272 12.89L6.85806 14.5H5.49999C5.43373 14.4991 5.36795 14.5113 5.30647 14.536C5.24498 14.5607 5.18902 14.5974 5.14184 14.6439C5.09465 14.6904 5.05719 14.7459 5.03161 14.807C5.00604 14.8681 4.99287 14.9337 4.99287 15C4.99287 15.0663 5.00604 15.1319 5.03161 15.193C5.05719 15.2541 5.09465 15.3095 5.14184 15.3561C5.18902 15.4026 5.24498 15.4393 5.30647 15.464C5.36795 15.4887 5.43373 15.5009 5.49999 15.5H7.66666C7.75184 15.5 7.83561 15.4782 7.91001 15.4367C7.98441 15.3952 8.04698 15.3354 8.09178 15.2629C8.13659 15.1905 8.16214 15.1078 8.16601 15.0227C8.16988 14.9376 8.15196 14.8529 8.11392 14.7767L7.41535 13.3802C7.77517 13.4627 8.12688 13.5083 8.45832 13.5176C9.08702 13.5351 9.61438 13.4083 10.056 13.1706L13.8887 15.0866C14.5337 15.4091 15.3333 14.9144 15.3333 14.1933C15.3333 13.9441 15.2393 13.7034 15.071 13.5195L12.3014 10.4388C12.2121 8.06909 10.8756 6.56579 9.5716 5.71353C8.89714 5.27273 8.23424 4.98385 7.75259 4.7884C7.54247 4.70313 7.38783 4.64277 7.27082 4.59374C7.32096 2.99814 6.18805 1.51567 4.52603 1.50064ZM4.51692 2.49999C5.67329 2.51045 6.48441 3.62612 6.30207 4.80858C6.28619 4.91198 6.30509 5.00391 6.33462 5.07942C5.34535 5.51795 4.66666 6.50096 4.66666 7.66666C4.66666 9.08775 5.74247 10.0663 6.85285 10.651C7.96324 11.2358 9.13011 11.5 9.83332 11.5C9.89958 11.5009 9.96536 11.4887 10.0268 11.464C10.0883 11.4393 10.1443 11.4026 10.1915 11.3561C10.2387 11.3095 10.2761 11.2541 10.3017 11.193C10.3273 11.1319 10.3404 11.0663 10.3404 11C10.3404 10.9337 10.3273 10.8681 10.3017 10.807C10.2761 10.7459 10.2387 10.6904 10.1915 10.6439C10.1443 10.5974 10.0883 10.5607 10.0268 10.536C9.96536 10.5113 9.89958 10.4991 9.83332 10.5C9.43186 10.5 8.26578 10.2642 7.319 9.76561C6.37222 9.26702 5.66666 8.57889 5.66666 7.66666C5.66666 6.58332 6.41666 5.83332 7.49999 5.83332C7.54188 5.83378 7.58365 5.82896 7.62434 5.819C8.04162 5.99666 8.53365 6.22982 9.02473 6.55077C10.2054 7.32241 11.3333 8.51479 11.3333 10.6667C11.3333 10.7902 11.379 10.9094 11.4616 11.0013L14.3275 14.1881L10.3001 12.1745C10.2129 12.1309 10.1148 12.1138 10.018 12.1253C9.92121 12.1367 9.82986 12.1762 9.7552 12.2389C9.60762 12.363 9.11194 12.535 8.48632 12.5176C7.8607 12.5001 7.10857 12.3251 6.39712 11.9316C4.97423 11.1448 3.66666 9.52499 3.66666 6.33332C3.66663 6.24043 3.64073 6.14938 3.59186 6.07038C3.54299 5.99138 3.47308 5.92755 3.38996 5.88606C3.12812 5.75514 2.97711 5.61473 2.86067 5.39061C2.74423 5.1665 2.66666 4.833 2.66666 4.33332C2.66666 3.30901 3.48997 2.4905 4.51692 2.49999ZM4.16666 3.49999C4.03405 3.49999 3.90687 3.55267 3.8131 3.64644C3.71933 3.7402 3.66666 3.86738 3.66666 3.99999C3.66666 4.1326 3.71933 4.25977 3.8131 4.35354C3.90687 4.44731 4.03405 4.49999 4.16666 4.49999C4.29926 4.49999 4.42644 4.44731 4.52021 4.35354C4.61398 4.25977 4.66666 4.1326 4.66666 3.99999C4.66666 3.86738 4.61398 3.7402 4.52021 3.64644C4.42644 3.55267 4.29926 3.49999 4.16666 3.49999Z" fill="#848A93"/>
</svg>
