<svg width="16" height="17" viewBox="0 0 16 17" fill="none" xmlns="http://www.w3.org/2000/svg">
<path d="M8.8203 1.98893C8.22292 2.00854 7.66666 2.49449 7.66666 3.14843V5.40234C7.66666 5.55268 7.7285 5.68685 7.74738 5.83333H7.16666C5.31114 5.83333 3.66425 6.76934 2.66665 8.18945V6.99999C2.66665 6.00547 3.0006 5.02466 3.56314 4.31575C4.12568 3.60684 4.8891 3.16666 5.83332 3.16666C5.89958 3.1676 5.96536 3.15536 6.02684 3.13065C6.08833 3.10594 6.14429 3.06926 6.19147 3.02274C6.23866 2.97622 6.27613 2.92078 6.3017 2.85965C6.32727 2.79852 6.34044 2.73292 6.34044 2.66666C6.34044 2.6004 6.32727 2.5348 6.3017 2.47367C6.27613 2.41254 6.23866 2.3571 6.19147 2.31058C6.14429 2.26406 6.08833 2.22738 6.02684 2.20267C5.96536 2.17796 5.89958 2.16572 5.83332 2.16666C4.56854 2.16666 3.49848 2.7885 2.77994 3.694C2.06139 4.59951 1.66666 5.78551 1.66666 6.99999V11.3333C1.66645 11.3522 1.66732 11.3712 1.66926 11.39C1.69732 13.2914 3.121 14.8612 4.95832 15.1237C5.02388 15.1528 5.09493 15.1674 5.16665 15.1667H13.1667C13.805 15.1667 14.3333 14.6383 14.3333 14C14.3333 13.2859 13.9212 12.6608 13.319 12.36L13.3183 12.3594C13.1058 12.2528 11.4012 11.4633 11.3392 8.81119C13.0131 8.63867 14.3333 7.21939 14.3333 5.49934V3.14843C14.3333 2.2764 13.3448 1.70337 12.5879 2.13606C12.5428 2.1617 12.5019 2.19421 12.4668 2.23242L11.6126 3.16666H10.3867L9.53319 2.23242C9.49807 2.19421 9.45722 2.1617 9.4121 2.13606C9.22283 2.02787 9.01943 1.98239 8.8203 1.98893ZM13.194 2.98111C13.2179 2.97821 13.2402 2.98027 13.2585 2.99088C13.3043 3.01744 13.3333 3.07244 13.3333 3.14843V5.49934C13.3333 6.84571 12.2139 7.91695 10.8437 7.82812C9.61131 7.74819 8.66665 6.65981 8.66665 5.40234V3.14843C8.66665 3.01234 8.76607 2.95924 8.88085 3.0013L9.79751 4.0039C9.84437 4.05518 9.90139 4.09614 9.96494 4.12416C10.0285 4.15218 10.0972 4.16666 10.1667 4.16666H11.8333C11.9028 4.16666 11.9715 4.15218 12.035 4.12416C12.0986 4.09614 12.1556 4.05518 12.2025 4.0039L13.1191 3.0013C13.1446 2.9919 13.1701 2.98402 13.194 2.98111ZM9.83332 4.83333C9.70071 4.83333 9.57354 4.88601 9.47977 4.97977C9.386 5.07354 9.33332 5.20072 9.33332 5.33333C9.33332 5.46593 9.386 5.59311 9.47977 5.68688C9.57354 5.78065 9.70071 5.83333 9.83332 5.83333C9.96593 5.83333 10.0931 5.78065 10.1869 5.68688C10.2806 5.59311 10.3333 5.46593 10.3333 5.33333C10.3333 5.20072 10.2806 5.07354 10.1869 4.97977C10.0931 4.88601 9.96593 4.83333 9.83332 4.83333ZM12.1667 4.83333C12.034 4.83333 11.9069 4.88601 11.8131 4.97977C11.7193 5.07354 11.6667 5.20072 11.6667 5.33333C11.6667 5.46593 11.7193 5.59311 11.8131 5.68688C11.9069 5.78065 12.034 5.83333 12.1667 5.83333C12.2993 5.83333 12.4264 5.78065 12.5202 5.68688C12.614 5.59311 12.6667 5.46593 12.6667 5.33333C12.6667 5.20072 12.614 5.07354 12.5202 4.97977C12.4264 4.88601 12.2993 4.83333 12.1667 4.83333ZM7.99218 6.80924C8.42493 7.78188 9.27077 8.54239 10.3379 8.76562C10.386 11.9165 12.646 13.141 12.8711 13.2539C12.8713 13.2539 12.8715 13.2539 12.8717 13.2539C13.1444 13.3899 13.3333 13.6691 13.3333 14C13.3333 14.0983 13.265 14.1667 13.1667 14.1667H9.64908C9.65754 14.1105 9.66665 14.0544 9.66665 13.9961C9.66665 13.1513 9.08247 12.4354 8.29947 12.2285C8.08432 10.6918 6.76065 9.49999 5.16665 9.49999H4.83332C4.76707 9.49906 4.70128 9.5113 4.6398 9.536C4.57832 9.56071 4.52236 9.59739 4.47517 9.64391C4.42799 9.69044 4.39052 9.74587 4.36494 9.807C4.33937 9.86813 4.3262 9.93373 4.3262 9.99999C4.3262 10.0663 4.33937 10.1319 4.36494 10.193C4.39052 10.2541 4.42799 10.3096 4.47517 10.3561C4.52236 10.4026 4.57832 10.4393 4.6398 10.464C4.70128 10.4887 4.76707 10.5009 4.83332 10.5H5.16665C6.35785 10.5 7.31362 11.4467 7.33137 12.6335C7.3263 12.7097 7.33877 12.7861 7.36783 12.8568C7.36868 12.8592 7.36954 12.8615 7.37043 12.8639C7.37273 12.8692 7.37512 12.8744 7.37759 12.8796C7.42065 12.9748 7.49249 13.0542 7.58299 13.1065C7.67349 13.1588 7.77811 13.1814 7.88215 13.1712C8.32414 13.1945 8.66665 13.5474 8.66665 13.9961C8.66665 14.0961 8.59581 14.1667 8.49608 14.1667H5.49999C3.92919 14.1667 2.66665 12.9041 2.66665 11.3333C2.66665 8.85605 4.68938 6.83333 7.16666 6.83333H7.83332C7.88723 6.83391 7.94087 6.82578 7.99218 6.80924Z" fill="#848A93"/>
</svg>
